<?xml version="1.0" encoding="utf-8"?>
<!-- Generator: Adobe Illustrator 23.0.1, SVG Export Plug-In . SVG Version: 6.00 Build 0)  -->
<svg version="1.1" id="Layer_1" xmlns="http://www.w3.org/2000/svg" xmlns:xlink="http://www.w3.org/1999/xlink" x="0px" y="0px"
	 viewBox="0 0 400 400" style="enable-background:new 0 0 400 400;" xml:space="preserve">
<style type="text/css">
	.st0{fill:#FFA600;}
</style>
<g>
	<path class="st0" d="M395.7,158.4C376.5,67.9,296.2,0,200,0C103.8,0,23.4,68,4.3,158.5C1.5,171.9,0,185.8,0,200c0,1,0,2,0,2.9
		c0.1,9.8,1,19.4,2.5,28.8c1.8,11,4.4,21.8,7.9,32.2c0.5,1.4,1,2.8,1.5,4.2c3.1,8.4,6.6,16.6,10.8,24.4c0.5,1,1,2,1.6,2.9
		c4.3,7.9,9.1,15.4,14.3,22.6c1.4,2,2.9,3.9,4.4,5.8c1,1.2,1.9,2.4,2.9,3.6c5,6,10.4,11.8,16,17.2c3,2.8,6.1,5.6,9.2,8.3
		c32.1,27.1,72.9,44.3,117.6,46.7c3.7,0.2,7.5,0.3,11.2,0.3c3.8,0,7.5-0.1,11.2-0.3c44.7-2.5,85.5-19.6,117.6-46.7
		c3.1-2.7,6.2-5.4,9.2-8.3c5.7-5.4,11-11.2,16-17.2c1-1.2,2-2.4,2.9-3.6c1.5-1.9,3-3.8,4.4-5.8c5.3-7.2,10.1-14.7,14.4-22.6
		c0.5-1,1.1-2,1.6-2.9c4.1-7.9,7.7-16,10.8-24.5c0.5-1.4,1-2.8,1.5-4.2c1.7-5.2,3.3-10.5,4.6-15.8c1.3-5.4,2.4-10.8,3.3-16.4
		c1.5-9.4,2.3-19,2.5-28.8c0-1,0-1.9,0-2.9C400,185.7,398.5,171.8,395.7,158.4z M367.7,221.9c-0.6,4.5-1.3,9-2.3,13.3
		c-0.9,4.4-2,8.7-3.3,13c-0.7,2.4-1.5,4.7-2.3,7c-2.5,7.3-5.6,14.4-9,21.3c-3.3,6.5-7,12.7-11,18.6c-5.1,7.5-10.9,14.6-17.1,21.2
		c-3.4,3.5-6.9,6.9-10.5,10.2c-12.9,11.4-27.6,21-43.5,28.1c-8.7,3.9-17.7,7-27.1,9.4c-3.2,0.8-6.4,1.5-9.6,2.1
		c-10.4,2-21.1,3-32.1,3c-11,0-21.7-1-32.1-3c-3.2-0.6-6.4-1.3-9.6-2.1c-9.4-2.4-18.4-5.5-27.1-9.4c-8-3.6-15.6-7.7-22.9-12.4
		c-7.3-4.7-14.2-9.9-20.6-15.7c-3.6-3.2-7.2-6.6-10.5-10.2c-6.2-6.6-12-13.7-17.1-21.2c-4.1-5.9-7.7-12.2-11-18.6
		c-3.5-6.8-6.5-13.9-9-21.3c-0.8-2.3-1.6-4.7-2.3-7c-2.5-8.5-4.4-17.3-5.6-26.3c-0.9-7.2-1.4-14.5-1.4-21.9c0-5.3,0.2-10.5,0.7-15.6
		c1.1-12.1,3.5-23.9,7-35.2C60.1,80.6,124.3,30.9,200,30.9c75.7,0,139.8,49.8,161.4,118.4c3.5,11.2,5.9,23,7,35.1
		c0.5,5.1,0.7,10.4,0.7,15.6C369.1,207.4,368.7,214.8,367.7,221.9z"/>
	<path class="st0" d="M164.8,149.6c-1,0.2-2.1,0.4-3.3,0.6c-3.8,0.7-7.7,1.4-9.6,1.5c-4.6,0.3-12.5-1.2-13.7-2.2
		c-1.1-1-2.9-1.7-13.2,0.2c-0.1,0-0.2,0-0.3,0.1c9.4-7.3,17.6-11.6,23.5-11.6C153.1,138.2,158.8,142.9,164.8,149.6z"/>
	<path class="st0" d="M342.6,226.5c-2.4,12.8-6.4,25-11.9,36.4c-9.6-12.2-6.9-19.1-44.8-4.8c-37.9,14.3-44.5,13.7-85.9-9.4
		c-32.1-17.9-90,21.8-114.3,40.5c-14.3-18.3-24.3-40.2-28.5-64c18.2-26,40.5-52,59.4-68.6c7.5-1.7,16.6-3.3,18.7-3
		c2.9,2.1,10.9,3.2,15.5,3.2c0.5,0,1,0,1.4,0c2.2-0.1,6.1-0.8,10.2-1.6c1.8-0.3,4.1-0.7,6.2-1.1c14.1,17,29.6,42.2,41.4,46
		c8,2.6,15.2-2,21.8-7.1c0.7,0,1.2,0,1.6,0c2.9,2.1,10.9,3.2,15.5,3.2c0.5,0,1,0,1.4,0c2.2-0.1,6.1-0.8,10.2-1.6
		c1.2-0.2,2.7-0.5,4.1-0.7c6.5,6.5,13.5,11.7,26.6,7.7c11.3-3.5,14.8-18.7,30.9-1.4C329.4,207.8,336.5,217.5,342.6,226.5z"/>
	<path class="st0" d="M260.4,189.5c-0.3,0-0.5,0.1-0.8,0.1c-3.8,0.7-7.7,1.4-9.6,1.5c-4.4,0.3-11.7-1.1-13.5-2
		c6.3-5.1,12-9.2,17.2-5.5C256.1,185.3,258.3,187.3,260.4,189.5z"/>
	<path class="st0" d="M311.8,292.3C285.2,324.5,245,345,200,345c-38.2,0-73-14.8-98.9-38.9c15.9-11.4,55.4-36.2,82.5-25.2
		c34.6,14,51.1,32.2,69.3,30.5C267.2,310,297.7,291.2,311.8,292.3z"/>
</g>
</svg>
