<?xml version="1.0" encoding="utf-8"?>
<!-- Generator: Adobe Illustrator 23.0.1, SVG Export Plug-In . SVG Version: 6.00 Build 0)  -->
<svg version="1.1" id="Layer_1" xmlns="http://www.w3.org/2000/svg" xmlns:xlink="http://www.w3.org/1999/xlink" x="0px" y="0px"
	 viewBox="0 0 400 400" style="enable-background:new 0 0 400 400;" xml:space="preserve">
<style type="text/css">
	.st0{fill:#FF4233;}
</style>
<g>
	<path class="st0" d="M395.4,158.4C376.2,67.9,295.9-0.1,199.7-0.1C103.5-0.1,23.1,67.9,4,158.4c-2.8,13.4-4.3,27.3-4.3,41.5
		c0,1,0,2,0,2.9c0.1,9.8,1,19.4,2.5,28.8c1.8,11,4.4,21.8,7.9,32.2c0.5,1.4,1,2.8,1.5,4.2c3.1,8.4,6.6,16.6,10.8,24.4
		c0.5,1,1,2,1.6,2.9c4.3,7.9,9.1,15.4,14.3,22.6c1.4,2,2.9,3.9,4.4,5.8c1,1.2,1.9,2.4,2.9,3.6c5,6,10.4,11.8,16,17.2
		c3,2.8,6.1,5.6,9.2,8.3c32.1,27.1,72.9,44.3,117.6,46.7c3.7,0.2,7.5,0.3,11.2,0.3c3.8,0,7.5-0.1,11.2-0.3
		c44.7-2.5,85.5-19.6,117.6-46.7c3.1-2.7,6.2-5.4,9.2-8.3c5.7-5.4,11-11.2,16-17.2c1-1.2,2-2.4,2.9-3.6c1.5-1.9,3-3.8,4.4-5.8
		c5.3-7.2,10.1-14.7,14.4-22.6c0.5-1,1.1-2,1.6-2.9c4.1-7.9,7.7-16,10.8-24.5c0.5-1.4,1-2.8,1.5-4.2c1.7-5.2,3.3-10.5,4.6-15.8
		c1.3-5.4,2.4-10.8,3.3-16.4c1.5-9.4,2.3-19,2.5-28.8c0-1,0-1.9,0-2.9C399.7,185.7,398.2,171.8,395.4,158.4z M367.4,221.9
		c-0.6,4.5-1.3,9-2.3,13.3c-0.9,4.4-2,8.7-3.3,13c-0.7,2.4-1.5,4.7-2.3,7c-2.5,7.3-5.6,14.4-9,21.3c-3.3,6.5-7,12.7-11,18.6
		c-5.1,7.5-10.9,14.6-17.1,21.2c-3.4,3.5-6.9,6.9-10.5,10.2c-12.9,11.4-27.6,21-43.5,28.1c-8.7,3.9-17.7,7-27.1,9.4
		c-3.2,0.8-6.4,1.5-9.6,2.1c-10.4,2-21.1,3-32.1,3c-11,0-21.7-1-32.1-3c-3.2-0.6-6.4-1.3-9.6-2.1c-9.4-2.4-18.4-5.5-27.1-9.4
		c-8-3.6-15.6-7.7-22.9-12.4c-7.3-4.7-14.2-9.9-20.6-15.7c-3.6-3.2-7.2-6.6-10.5-10.2c-6.2-6.6-12-13.7-17.1-21.2
		c-4.1-5.9-7.7-12.2-11-18.6c-3.5-6.8-6.5-13.9-9-21.3c-0.8-2.3-1.6-4.7-2.3-7c-2.5-8.5-4.4-17.3-5.6-26.3
		c-0.9-7.2-1.4-14.5-1.4-21.9c0-5.3,0.2-10.5,0.7-15.6c1.1-12.1,3.5-23.9,7-35.2C59.8,80.6,123.9,30.8,199.7,30.8
		c75.7,0,139.8,49.8,161.4,118.4c3.5,11.2,5.9,23,7,35.1c0.5,5.1,0.7,10.4,0.7,15.6C368.8,207.4,368.4,214.7,367.4,221.9z"/>
	<path class="st0" d="M139.7,333.2c-35.1-15.8-62.8-45-76.5-81.2c0,0,28.6,23.3,28.6,9.1C95.8,291.3,125.1,320.3,139.7,333.2z"/>
	<path class="st0" d="M304.4,257.7c-4,35-29.2,61.7-46.5,76.2c-4.9,2.1-10,4-15.2,5.6c7.7-8.9,14.6-28-1.1-68.2
		c-10.4,23.2-33.4,52.7-29.5,3.6c4.5-57.1-16.4-71.2-25.6-74.6c4.5,9.5,10.7,32.9-15,64.2c-31.1,37.9-25.3,61.8-16.5,74.5
		c-5.2-1.7-10.4-3.7-15.3-5.9c-14.7-12.8-44-41.9-47.9-72.1c0-0.8-0.1-1.8-0.3-3c-0.6-8.6,0.9-17.3,5.4-25.7
		c29.7-54.4,25.8-94,25.8-94l26.7,58.2c28.5-43.6,30.4-85.4,30.4-85.4s50,7.4,66.2,86.4c8.1-3.4,19-13.2,10.2-39.6
		C296.9,195.2,307.7,229.2,304.4,257.7z"/>
	<path class="st0" d="M336.2,252c-14,36.7-42.4,66.3-78.3,81.9c17.2-14.5,42.4-41.2,46.5-76.2C304.4,265.7,323.6,274.6,336.2,252z"
		/>
	<path class="st0" d="M246.2,198.2c0-0.2-0.1-0.4-0.1-0.6"/>
	<path class="st0" d="M336.2,252"/>
</g>
</svg>
