<?xml version="1.0" encoding="utf-8"?>
<!-- Generator: Adobe Illustrator 23.0.1, SVG Export Plug-In . SVG Version: 6.00 Build 0)  -->
<svg version="1.1" id="Layer_1" xmlns="http://www.w3.org/2000/svg" xmlns:xlink="http://www.w3.org/1999/xlink" x="0px" y="0px"
	 viewBox="0 0 400 400" style="enable-background:new 0 0 400 400;" xml:space="preserve">
<style type="text/css">
	.st0{fill:#8CB6BB;}
</style>
<g>
	<path class="st0" d="M395.7,158.4C376.5,67.9,296.2,0,200,0C103.8,0,23.4,68,4.3,158.5C1.5,171.9,0,185.8,0,200c0,1,0,2,0,2.9
		c0.1,9.8,1,19.4,2.5,28.8c1.8,11,4.4,21.8,7.9,32.2v0c0.5,1.4,1,2.8,1.5,4.2c3.1,8.4,6.6,16.6,10.8,24.4c0.5,1,1,2,1.6,2.9
		c4.3,7.9,9.1,15.4,14.3,22.6c1.4,2,2.9,3.9,4.4,5.8c1,1.2,1.9,2.4,2.9,3.6c5,6,10.4,11.8,16,17.2c3,2.8,6.1,5.6,9.2,8.3
		c32.1,27.1,72.9,44.3,117.6,46.7c3.7,0.2,7.5,0.3,11.2,0.3c3.8,0,7.5-0.1,11.2-0.3c44.7-2.5,85.5-19.6,117.6-46.7
		c3.1-2.7,6.2-5.4,9.2-8.3c5.7-5.4,11-11.2,16-17.2c1-1.2,2-2.4,2.9-3.6c1.5-1.9,3-3.8,4.4-5.8c5.3-7.2,10.1-14.7,14.4-22.6
		c0.5-1,1.1-2,1.6-2.9c4.1-7.9,7.7-16,10.8-24.5c0.5-1.4,1-2.8,1.5-4.2v0c3.5-10.4,6.2-21.1,7.9-32.2c1.5-9.4,2.3-19,2.5-28.8
		c0-1,0-1.9,0-2.9C400,185.7,398.5,171.8,395.7,158.4z M367.7,221.9L367.7,221.9c-1.2,9-3,17.8-5.6,26.3c-0.7,2.4-1.5,4.7-2.3,7
		c-2.5,7.3-5.6,14.4-9,21.3c-3.3,6.5-7,12.7-11,18.6c-5.1,7.5-10.9,14.6-17.1,21.2c-3.4,3.5-6.9,6.9-10.5,10.2
		c-12.9,11.4-27.6,21-43.5,28.1c-8.7,3.9-17.7,7-27.1,9.4c-3.2,0.8-6.4,1.5-9.6,2.1c-10.4,2-21.1,3-32.1,3c-11,0-21.7-1-32.1-3
		c-3.2-0.6-6.4-1.3-9.6-2.1c-9.4-2.4-18.4-5.5-27.1-9.4c-8-3.6-15.6-7.7-22.9-12.4c-7.3-4.7-14.2-9.9-20.6-15.7
		c-3.6-3.2-7.2-6.6-10.5-10.2c-6.3-6.6-12-13.7-17.1-21.2c-4.1-5.9-7.7-12.2-11-18.6c-3.5-6.8-6.5-13.9-9-21.3
		c-0.8-2.3-1.6-4.7-2.3-7c-2.5-8.5-4.4-17.3-5.6-26.3c-0.9-7.2-1.4-14.5-1.4-22c0-5.3,0.2-10.5,0.7-15.6c1.1-12.1,3.5-23.9,7-35.2
		C60.2,80.6,124.3,30.8,200,30.8c75.7,0,139.8,49.8,161.4,118.4c3.5,11.3,5.9,23,7,35.1c0.5,5.1,0.7,10.4,0.7,15.6
		C369.1,207.4,368.7,214.8,367.7,221.9z"/>
	<path class="st0" d="M248.3,146c1.2-0.6,2.4-1.2,3.5-1.9C250.4,144.7,249.3,145.3,248.3,146z"/>
	<path class="st0" d="M153.4,91.3c1.2-1.5,2-2.5,2.1-2.9C154.8,89.4,154.1,90.3,153.4,91.3z"/>
	<path class="st0" d="M257.9,208c-10.4,0-20.1,2.7-28.5,7.5c-0.7,0.4-1.3,0.8-1.9,1.2c-18.2,10.4-66,27.5-94.1-0.7
		c-49.5-49.5-23.9-129.2,59.1-160.8C115.9,59.2,55,122.5,55,200c0,80.1,64.9,145,145,145c32.5,0,62.5-10.7,86.7-28.8
		c6.2-4.6,12-9.7,17.4-15.3c7.4-9.7,11.8-21.8,11.8-35C315.8,233.9,289.9,208,257.9,208z M83.9,168.5
		c22.5,102.9,100.6,91.6,100.6,91.6C85.2,294,83.9,168.5,83.9,168.5z M256.2,304.6c-20.2,0-36.6-16.4-36.6-36.6
		c0-20.2,16.4-36.6,36.6-36.6c20.2,0,36.6,16.4,36.6,36.6C292.8,288.2,276.4,304.6,256.2,304.6z"/>
	<path class="st0" d="M330.7,137.2C330.7,137.2,330.7,137.2,330.7,137.2c-27-51.2-62.1-59.7-85.1-58.8c-0.2,0-0.3,0-0.5,0
		c-1,0-1.9,0.1-2.8,0.2c-0.2,0-0.4,0-0.5,0c-0.2,0-0.4,0-0.6,0.1c-0.4,0-0.7,0.1-1.1,0.1c-0.4,0-0.9,0.1-1.3,0.2
		c-0.2,0-0.4,0.1-0.6,0.1c-0.2,0-0.4,0-0.6,0.1c-0.2,0-0.4,0-0.6,0.1c-0.3,0-0.6,0.1-0.9,0.1c-0.2,0-0.4,0.1-0.5,0.1
		c-0.2,0-0.5,0.1-0.7,0.1c-0.2,0-0.3,0.1-0.5,0.1c-1,0.2-2,0.4-2.9,0.6c-0.2,0-0.4,0.1-0.7,0.1c-1.3,0.3-2.4,0.6-3.4,0.9
		c-0.1,0-0.2,0.1-0.4,0.1c-0.9,0.3-1.6,0.5-2.3,0.7c-0.1,0-0.3,0.1-0.4,0.1c-0.1,0-0.2,0.1-0.3,0.1c-0.1,0.1-0.3,0.1-0.4,0.2
		c-0.5,0.2-0.9,0.3-1.2,0.4c-0.1,0-0.2,0.1-0.2,0.1c0,0,0,0-0.1,0c0,0-0.1,0-0.1,0.1c0,0-0.1,0-0.1,0c-0.1,0-0.1,0-0.2,0.1
		C209,88.2,200,100.6,200,115c0,18.8,15.2,34,34,34c5.1,0,9.9-1.1,14.2-3.1c1-0.6,2.2-1.3,3.5-1.9c21.1-9.5,83.6-12.7,89.8,87.3
		c2.2-10.1,3.4-20.6,3.4-31.4C345,177.5,339.9,156.2,330.7,137.2z M232.2,130.1c-7,0-12.7-5.7-12.7-12.7c0-7,5.7-12.7,12.7-12.7
		c7,0,12.7,5.7,12.7,12.7C244.9,124.4,239.2,130.1,232.2,130.1z"/>
	<path class="st0" d="M251.8,144.1c-1.1,0.7-2.3,1.3-3.5,1.9C249.3,145.3,250.4,144.7,251.8,144.1z"/>
	<path class="st0" d="M330.7,211.8c-12.4-43.9-52.7-54.5-69-61.8C261.7,150,321.1,138.6,330.7,211.8z"/>
	<path class="st0" d="M168.8,221.6C90.9,169,142,105.7,153.4,91.3C116.3,144.2,160.3,214.9,168.8,221.6z"/>
</g>
</svg>
